<svg viewBox="0 0 24 24" aria-hidden="true" focusable="false" fill="none" xmlns="http://www.w3.org/2000/svg" height="24" width="24">
  <path d="M2 6v12" stroke="#000000" stroke-linecap="round" stroke-linejoin="round" stroke-width="1.5"></path>
  <path d="M22 18v-2.3571c0 -1.995 0 -2.9924 -0.2806 -3.7943 -0.5025 -1.4362 -1.6318 -2.56546 -3.068 -3.06802C17.8495 8.5 16.8521 8.5 14.8571 8.5c-0.7979 0 -1.1969 0 -1.5177 0.11223 -0.5745 0.20103 -1.0261 0.65272 -1.2272 1.22721C12 10.1602 12 10.5592 12 11.3571V16" stroke="#000000" stroke-linecap="round" stroke-linejoin="round" stroke-width="1.5"></path>
  <path d="M2 16h20" stroke="#000000" stroke-linecap="round" stroke-linejoin="round" stroke-width="1.5"></path>
  <path d="M9.5 11c0 1.3807 -1.11929 2.5 -2.5 2.5S4.5 12.3807 4.5 11c0 -1.38071 1.11929 -2.5 2.5 -2.5S9.5 9.61929 9.5 11Z" stroke="#000000" stroke-width="1.5"></path>
</svg>